<svg width="600" height="600" viewBox="0 0 600 600" fill="none" xmlns="http://www.w3.org/2000/svg">
<rect width="600" height="600" rx="300" fill="black"/>
<path d="M445.375 277.422C492.587 321.528 507.275 411.841 487.341 478C452.719 435.994 405.507 423.392 356.196 414.991C280.656 404.49 206.166 408.69 135.872 443.345L110.692 458.047C104.397 439.145 102.299 419.192 105.446 399.239C110.692 351.982 134.823 315.227 172.593 286.873C187.281 275.321 204.067 265.87 219.805 255.369C268.066 221.764 280.656 183.959 261.771 128.301V122C284.702 132.196 304.065 149.018 317.377 170.307C331.223 192.31 338.503 217.813 338.36 243.817C338.36 256.419 338.36 270.071 340.459 282.673C344.655 314.177 359.344 327.829 387.671 328.879C400.847 329.629 413.848 325.574 424.265 317.464C434.682 309.354 441.809 297.74 444.326 284.773L445.375 277.422Z" fill="white"/>
<circle cx="162" cy="380" r="18" fill="black"/>
</svg>
